<mxfile host="app.diagrams.net" modified="2022-06-27T14:36:03.603Z" agent="5.0 (Windows NT 10.0; Win64; x64) AppleWebKit/537.36 (KHTML, like Gecko) Chrome/101.0.4951.67 Safari/537.36 OPR/87.0.4390.45" etag="Z910AaV-tFiPsYxIzUIK" version="20.0.3" type="github">
  <diagram id="Kv7PGgP7FFOZwBbOCusl" name="Page-1">
    <mxGraphModel dx="742" dy="708" grid="1" gridSize="10" guides="1" tooltips="1" connect="1" arrows="1" fold="1" page="1" pageScale="1" pageWidth="827" pageHeight="1169" math="0" shadow="0">
      <root>
        <mxCell id="0" />
        <mxCell id="1" parent="0" />
      </root>
    </mxGraphModel>
  </diagram>
</mxfile>
